<?xml version="1.0" encoding="utf-8"?>
<!-- Generator: Adobe Illustrator 27.0.0, SVG Export Plug-In . SVG Version: 6.00 Build 0)  -->
<svg version="1.1" id="Capa_1" xmlns="http://www.w3.org/2000/svg" xmlns:xlink="http://www.w3.org/1999/xlink" x="0px" y="0px"
	 viewBox="0 0 2985.9 512" style="enable-background:new 0 0 2985.9 512;" xml:space="preserve">
<style type="text/css">
	.st0{fill:#FCBF30;}
</style>
<path class="st0" d="M316.9,18c-5.3-11-16.5-18-28.8-18s-23.4,7-28.8,18L195,150.3L51.4,171.5c-12,1.8-22,10.2-25.7,21.7
	s-0.7,24.2,7.9,32.7L137.8,329l-24.6,145.7c-2,12,3,24.2,12.9,31.3s23,8,33.8,2.3l128.3-68.5l128.3,68.5c10.8,5.7,23.9,4.9,33.8-2.3
	s14.9-19.3,12.9-31.3L438.5,329l104.2-103.1c8.6-8.5,11.7-21.2,7.9-32.7s-13.7-19.9-25.7-21.7l-143.7-21.2L316.9,18z"/>
<path class="st0" d="M902.3,18C897,7,885.8,0,873.5,0s-23.4,7-28.8,18l-64.3,132.3l-143.6,21.2c-12,1.8-22,10.2-25.7,21.7
	s-0.7,24.2,7.9,32.7L723.2,329l-24.6,145.7c-2,12,3,24.2,12.9,31.3c9.9,7.1,23,8,33.8,2.3l128.3-68.5l128.3,68.5
	c10.8,5.7,23.9,4.9,33.8-2.3s14.9-19.3,12.9-31.3L1023.9,329l104.2-103.1c8.6-8.5,11.7-21.2,7.9-32.7c-3.8-11.5-13.7-19.9-25.7-21.7
	l-143.7-21.2L902.3,18z"/>
<path class="st0" d="M1493.1,18c-5.3-11-16.5-18-28.8-18c-12.3,0-23.4,7-28.8,18l-64.3,132.3l-143.6,21.2c-12,1.8-22,10.2-25.7,21.7
	c-3.7,11.5-0.7,24.2,7.9,32.7L1314,329l-24.6,145.7c-2,12,3,24.2,12.9,31.3c9.9,7.1,23,8,33.8,2.3l128.3-68.5l128.3,68.5
	c10.8,5.7,23.9,4.9,33.8-2.3c9.9-7.2,14.9-19.3,12.9-31.3L1614.7,329l104.2-103.1c8.6-8.5,11.7-21.2,7.9-32.7
	c-3.8-11.5-13.7-19.9-25.7-21.7l-143.7-21.2L1493.1,18z"/>
<path class="st0" d="M2083.9,18c-5.3-11-16.5-18-28.8-18s-23.4,7-28.8,18L1962,150.3l-143.6,21.2c-12,1.8-22,10.2-25.7,21.7
	c-3.7,11.5-0.7,24.2,7.9,32.7L1904.8,329l-24.6,145.7c-2,12,3,24.2,12.9,31.3c9.9,7.1,23,8,33.8,2.3l128.3-68.5l128.3,68.5
	c10.8,5.7,23.9,4.9,33.8-2.3c9.9-7.2,14.9-19.3,12.9-31.3L2205.5,329l104.2-103.1c8.6-8.5,11.7-21.2,7.9-32.7s-13.7-19.9-25.7-21.7
	l-143.7-21.2L2083.9,18z"/>
<path class="st0" d="M2709.9,18c-5.3-11-16.5-18-28.8-18c-12.3,0-23.4,7-28.8,18L2588,150.3l-143.6,21.2c-12,1.8-22,10.2-25.7,21.7
	s-0.7,24.2,7.9,32.7L2530.8,329l-24.6,145.7c-2,12,3,24.2,12.9,31.3c9.9,7.1,23,8,33.8,2.3l128.3-68.5l128.3,68.5
	c10.8,5.7,23.9,4.9,33.8-2.3c9.9-7.2,14.9-19.3,12.9-31.3L2831.5,329l104.2-103.1c8.6-8.5,11.7-21.2,7.9-32.7s-13.7-19.9-25.7-21.7
	l-143.7-21.2L2709.9,18z"/>
</svg>
